# xmcd
#
# Track frame offsets: 
#        150
#        11809
#        24216
#        34874
#        43727
#        55154
#        64982
#        74986
#        85044
#        93170
#        105039
#        115490
#        127455
#        138323
#        149699
#        159195
#
# Disc length: 2261 seconds
#
# Revision: 0
# Processed by: cddbd v1.5.2PL0 Copyright (c) Steve Scherf et al.
# Submitted via: ExactAudioCopy v0.95b3
#
DISCID=e308d310
DTITLE=The Beatles  - A Hard Day's Night (OSS)  FLAC
DYEAR=1900
DGENRE=
TTITLE0=A Hard Day's Night
TTITLE1=I Should Have Known Better
TTITLE2=If I Fell
TTITLE3=I'm Happy Just to Dance with You
TTITLE4=And I Love Her
TTITLE5=Tell Me Why
TTITLE6=Can't Buy Me Love
TTITLE7=Anytime at All
TTITLE8=I'll Cry Instead
TTITLE9=Things We Said Today
TTITLE10=When I Get Home
TTITLE11=You Can't Do That
TTITLE12=I'll Be Back
TTITLE13=And I Love Her [mono]
TTITLE14=I'll Cry Instead [mono]
TTITLE15=When I Get Home [mono]
EXTD=
EXTT0=
EXTT1=
EXTT2=
EXTT3=
EXTT4=
EXTT5=
EXTT6=
EXTT7=
EXTT8=
EXTT9=
EXTT10=
EXTT11=
EXTT12=
EXTT13=
EXTT14=
EXTT15=
PLAYORDER=
